<svg width="100" height="92" version="1.1">
 <path d="m31.683 0.78718v41.904l24.932-26.37q14.863-15.534 27.904-15.534 5.0823 0 8.1506 2.3973 3.1646 2.3973 3.1646 6.2332 0 3.7397-2.4918 5.9454-2.3976 2.2055-5.5614 2.2055-2.7805 0-7.3836-2.4933-4.6027-2.4933-7.0959-2.4933-4.9862 0-11.028 6.5204l-16.781 18.123 31.644 39.699q8.2468 10.356 21.863 10.74v3.548h-31.068l-36.247-47.082v47.082h-15.918v-53.699q0-15.822-1.2459-19.849-1.2459-4.1233-5.6576-4.1233-2.6862 0-6.5204 1.4383l-1.3432-3.4521 26.466-10.74z"/>
</svg>
